<?xml version="1.0" encoding="utf-8"?>
<!-- Designed by Vexels.com - 2017 All Rights Reserved - https://vexels.com/terms-and-conditions/  -->

<svg version="1.1" id="Layer_1" xmlns="http://www.w3.org/2000/svg" xmlns:xlink="http://www.w3.org/1999/xlink" x="0px" y="0px"
	 width="1200px" height="1200px" viewBox="0 0 1200 1200" enable-background="new 0 0 1200 1200" xml:space="preserve">
<g>
	<path fill="#FFFFFF" d="M1078.721,890.218c0,91.757-74.374,166.143-166.136,166.143H248.101
		c-91.75,0-166.136-74.385-166.136-166.143V225.741c0-91.763,74.385-166.142,166.136-166.142h664.484
		c91.762,0,166.136,74.38,166.136,166.142V890.218z"/>
	<path fill="#002D5C" d="M1107.374,919.273c0,91.757-74.375,166.137-166.137,166.137H276.753
		c-91.75,0-166.136-74.38-166.136-166.137V254.79c0-91.757,74.385-166.137,166.136-166.137h664.484
		c91.762,0,166.137,74.38,166.137,166.137V919.273z"/>
	<path fill="#00407E" d="M1090.187,913.513c0,91.762-74.374,166.141-166.137,166.141H259.567
		c-91.751,0-166.137-74.38-166.137-166.141V249.034c0-91.762,74.385-166.141,166.137-166.141H924.05
		c91.763,0,166.137,74.38,166.137,166.141V913.513z"/>
	<g opacity="0.18">
		<g>
			<defs>
				<path id="SVGID_1_" d="M1092.617,914.166c0,91.757-74.374,166.137-166.141,166.137H261.998
					c-91.751,0-166.141-74.38-166.141-166.137V249.683c0-91.757,74.39-166.137,166.141-166.137h664.478
					c91.767,0,166.141,74.38,166.141,166.137V914.166z"/>
			</defs>
			<clipPath id="SVGID_2_">
				<use xlink:href="#SVGID_1_"  overflow="visible"/>
			</clipPath>
			<g clip-path="url(#SVGID_2_)">
				<g>
					<polygon fill="#620F69" points="234.686,102.158 286.705,154.172 234.686,206.179 					"/>
					<polygon fill="#620F69" points="179.952,156.881 231.971,208.894 179.952,260.902 					"/>
					<polygon fill="#620F69" points="233.468,210.398 285.487,262.405 233.468,314.419 					"/>
					<polygon fill="#620F69" points="286.985,263.914 338.998,315.921 286.985,367.93 					"/>
					<polygon fill="#620F69" points="340.496,317.425 392.514,369.438 340.496,421.445 					"/>
					<polygon fill="#620F69" points="394.011,370.94 446.024,422.949 394.011,474.962 					"/>
					<polygon fill="#620F69" points="447.522,424.451 499.541,476.465 447.522,528.472 					"/>
					<polygon fill="#620F69" points="501.038,477.968 553.057,529.976 501.038,581.989 					"/>
					<polygon fill="#620F69" points="554.555,531.484 606.568,583.491 554.555,635.5 					"/>
					<polygon fill="#620F69" points="608.066,584.995 660.084,637.008 608.066,689.015 					"/>
					<polygon fill="#620F69" points="661.581,638.512 713.594,690.519 661.581,742.532 					"/>
					<polygon fill="#620F69" points="715.092,692.021 767.111,744.035 715.092,796.043 					"/>
					<polygon fill="#620F69" points="768.609,745.538 820.628,797.546 768.609,849.559 					"/>
					<polygon fill="#620F69" points="822.125,799.049 874.138,851.062 822.125,903.07 					"/>
					<polygon fill="#620F69" points="875.636,852.565 927.655,904.572 875.636,956.585 					"/>
					<polygon fill="#620F69" points="929.151,906.082 981.166,958.089 929.151,1010.096 					"/>
					<polygon fill="#620F69" points="982.662,959.591 1034.681,1011.605 982.662,1063.613 					"/>
					<polygon fill="#620F69" points="289.415,156.893 341.434,208.9 289.415,260.908 					"/>
					<polygon fill="#620F69" points="344.149,211.621 396.162,263.629 344.149,315.642 					"/>
					<polygon fill="#620F69" points="398.878,266.35 450.897,318.363 398.878,370.37 					"/>
					<polygon fill="#620F69" points="453.612,321.084 505.625,373.092 453.612,425.105 					"/>
					<polygon fill="#620F69" points="508.341,375.813 560.36,427.826 508.341,479.834 					"/>
					<polygon fill="#620F69" points="563.069,430.547 615.088,482.554 563.069,534.569 					"/>
					<polygon fill="#620F69" points="617.804,485.276 669.823,537.29 617.804,589.297 					"/>
					<polygon fill="#620F69" points="672.533,540.01 724.552,592.018 672.533,644.026 					"/>
					<polygon fill="#620F69" points="727.268,594.74 779.281,646.753 727.268,698.76 					"/>
					<polygon fill="#620F69" points="781.996,649.468 834.015,701.481 781.996,753.489 					"/>
					<polygon fill="#620F69" points="836.731,704.203 888.744,756.21 836.731,808.223 					"/>
					<polygon fill="#620F69" points="891.459,758.931 943.478,810.944 891.459,862.952 					"/>
					<polygon fill="#620F69" points="946.188,813.665 998.207,865.673 946.188,917.686 					"/>
					<polygon fill="#620F69" points="1000.922,868.394 1052.941,920.407 1000.922,972.414 					"/>
				</g>
				<g>
					<polygon fill="#620F69" points="127.089,107.064 179.108,159.072 127.089,211.085 					"/>
					<polygon fill="#620F69" points="184.92,56.297 236.938,108.31 184.92,160.318 					"/>
				</g>
				<g>
					<polygon fill="#620F69" points="128.145,205.107 180.164,257.12 128.145,309.127 					"/>
					<polygon fill="#620F69" points="126.927,313.345 178.946,365.358 126.927,417.367 					"/>
					<polygon fill="#620F69" points="180.443,366.862 232.462,418.869 180.443,470.883 					"/>
					<polygon fill="#620F69" points="233.96,420.373 285.973,472.386 233.96,524.394 					"/>
					<polygon fill="#620F69" points="287.471,473.889 339.49,525.896 287.471,577.91 					"/>
					<polygon fill="#620F69" points="340.986,527.405 393,579.413 340.986,631.42 					"/>
					<polygon fill="#620F69" points="394.498,580.916 446.516,632.93 394.498,684.937 					"/>
					<polygon fill="#620F69" points="448.014,634.432 500.033,686.44 448.014,738.453 					"/>
					<polygon fill="#620F69" points="501.53,687.943 553.543,739.956 501.53,791.964 					"/>
					<polygon fill="#620F69" points="555.041,741.459 607.06,793.467 555.041,845.48 					"/>
					<polygon fill="#620F69" points="608.557,794.975 660.571,846.983 608.557,898.99 					"/>
					<polygon fill="#620F69" points="662.068,848.487 714.086,900.5 662.068,952.507 					"/>
					<polygon fill="#620F69" points="715.584,902.002 767.603,954.009 715.584,1006.024 					"/>
					<polygon fill="#620F69" points="769.1,955.513 821.113,1007.526 769.1,1059.534 					"/>
					<polygon fill="#620F69" points="822.611,1009.029 874.63,1061.037 822.611,1113.056 					"/>
					<polygon fill="#620F69" points="182.879,259.841 234.892,311.849 182.879,363.862 					"/>
					<polygon fill="#620F69" points="237.608,314.57 289.627,366.583 237.608,418.59 					"/>
					<polygon fill="#620F69" points="292.343,369.304 344.356,421.311 292.343,473.325 					"/>
					<polygon fill="#620F69" points="347.072,424.033 399.091,476.046 347.072,528.053 					"/>
					<polygon fill="#620F69" points="401.8,478.767 453.819,530.774 401.8,582.782 					"/>
					<polygon fill="#620F69" points="456.535,533.495 508.554,585.503 456.535,637.516 					"/>
					<polygon fill="#620F69" points="511.263,588.23 563.282,640.237 511.263,692.246 					"/>
					<polygon fill="#620F69" points="565.998,642.958 618.011,694.966 565.998,746.98 					"/>
					<polygon fill="#620F69" points="620.726,697.687 672.745,749.701 620.726,801.709 					"/>
					<polygon fill="#620F69" points="675.46,752.421 727.474,804.43 675.46,856.443 					"/>
					<polygon fill="#620F69" points="730.189,807.151 782.208,859.164 730.189,911.171 					"/>
					<polygon fill="#620F69" points="784.923,861.885 836.936,913.893 784.923,965.906 					"/>
					<polygon fill="#620F69" points="839.653,916.614 891.672,968.621 839.653,1020.634 					"/>
					<polygon fill="#620F69" points="894.382,971.348 946.401,1023.355 894.382,1075.363 					"/>
				</g>
				<polygon fill="#620F69" points="115.591,510.045 167.61,562.058 115.591,614.066 				"/>
				<polygon fill="#620F69" points="169.106,563.561 221.12,615.569 169.106,667.583 				"/>
				<polygon fill="#620F69" points="222.618,617.078 274.636,669.085 222.618,721.094 				"/>
				<polygon fill="#620F69" points="276.133,670.589 328.147,722.602 276.133,774.609 				"/>
				<polygon fill="#620F69" points="329.644,724.104 381.663,776.113 329.644,828.126 				"/>
				<polygon fill="#620F69" points="383.161,777.615 435.18,829.628 383.161,881.636 				"/>
				<polygon fill="#620F69" points="436.671,831.132 488.69,883.139 436.671,935.153 				"/>
				<polygon fill="#620F69" points="490.188,884.648 542.206,936.655 490.188,988.664 				"/>
				<polygon fill="#620F69" points="543.704,938.159 595.717,990.172 543.704,1042.179 				"/>
				<polygon fill="#620F69" points="597.214,991.674 649.233,1043.683 597.214,1095.69 				"/>
				<polygon fill="#620F69" points="652.971,1045.979 704.985,1097.993 652.971,1150 				"/>
				<polygon fill="#620F69" points="119.239,404.242 171.258,456.255 119.239,508.262 				"/>
				<polygon fill="#620F69" points="173.973,458.976 225.992,510.984 173.973,562.997 				"/>
				<polygon fill="#620F69" points="228.702,513.705 280.721,565.718 228.702,617.725 				"/>
				<polygon fill="#620F69" points="283.436,568.439 335.449,620.446 283.436,672.455 				"/>
				<polygon fill="#620F69" points="338.165,623.168 390.184,675.181 338.165,727.189 				"/>
				<polygon fill="#620F69" points="392.9,677.896 444.913,729.91 392.9,781.918 				"/>
				<polygon fill="#620F69" points="447.629,732.632 499.647,784.639 447.629,836.652 				"/>
				<polygon fill="#620F69" points="502.363,787.36 554.376,839.373 502.363,891.381 				"/>
				<polygon fill="#620F69" points="557.091,842.094 609.11,894.102 557.091,946.115 				"/>
				<polygon fill="#620F69" points="611.82,896.823 663.839,948.836 611.82,1000.844 				"/>
				<polygon fill="#620F69" points="666.554,951.557 718.568,1003.565 666.554,1055.572 				"/>
				<polygon fill="#620F69" points="721.283,1006.286 773.302,1058.299 721.283,1110.306 				"/>
				<polygon fill="#620F69" points="123.966,713.913 175.979,765.92 123.966,817.929 				"/>
				<polygon fill="#620F69" points="177.477,767.424 229.496,819.437 177.477,871.445 				"/>
				<polygon fill="#620F69" points="230.993,820.94 283.006,872.948 230.993,924.961 				"/>
				<polygon fill="#620F69" points="284.504,874.451 336.523,926.464 284.504,978.471 				"/>
				<polygon fill="#620F69" points="338.02,927.967 390.039,979.975 338.02,1031.988 				"/>
				<polygon fill="#620F69" points="445.109,1040.849 497.127,1092.863 445.109,1144.87 				"/>
				<polygon fill="#620F69" points="389.357,986.545 441.376,1038.553 389.357,1090.566 				"/>
				<polygon fill="#620F69" points="115.725,610.54 167.738,662.553 115.725,714.561 				"/>
				<polygon fill="#620F69" points="170.453,665.274 222.472,717.282 170.453,769.296 				"/>
				<polygon fill="#620F69" points="225.188,720.003 277.201,772.016 225.188,824.025 				"/>
				<polygon fill="#620F69" points="279.916,774.737 331.935,826.746 279.916,878.753 				"/>
				<polygon fill="#620F69" points="334.645,829.467 386.664,881.474 334.645,933.488 				"/>
				<polygon fill="#620F69" points="389.379,884.196 441.398,936.209 389.379,988.216 				"/>
				<polygon fill="#620F69" points="444.108,938.93 496.126,990.937 444.108,1042.95 				"/>
				<polygon fill="#620F69" points="496.675,990.764 548.688,1042.772 496.675,1094.785 				"/>
				<polygon fill="#620F69" points="546.626,1038.547 598.645,1090.56 546.626,1142.569 				"/>
				<polygon fill="#620F69" points="124.675,916.021 176.694,968.028 124.675,1020.037 				"/>
				<polygon fill="#620F69" points="178.192,969.532 230.211,1021.545 178.192,1073.553 				"/>
				<polygon fill="#620F69" points="231.702,1023.048 283.721,1075.056 231.702,1127.069 				"/>
				<polygon fill="#620F69" points="123.782,812.917 175.801,864.924 123.782,916.938 				"/>
				<polygon fill="#620F69" points="178.51,867.646 230.529,919.659 178.51,971.666 				"/>
				<polygon fill="#620F69" points="233.245,922.38 285.264,974.387 233.245,1026.4 				"/>
				<polygon fill="#620F69" points="287.973,977.108 339.992,1029.121 287.973,1081.129 				"/>
				<polygon fill="#620F69" points="337.21,1027.792 389.223,1079.799 337.21,1131.807 				"/>
				<g>
					<polygon fill="#620F69" points="286.828,50 338.847,102.013 286.828,154.021 					"/>
					<polygon fill="#620F69" points="340.345,103.516 392.358,155.529 340.345,207.537 					"/>
					<polygon fill="#620F69" points="393.854,157.032 445.873,209.04 393.854,261.053 					"/>
					<polygon fill="#620F69" points="447.371,210.543 499.384,262.557 447.371,314.564 					"/>
					<polygon fill="#620F69" points="500.882,264.059 552.901,316.066 500.882,368.08 					"/>
					<polygon fill="#620F69" points="554.398,317.57 606.417,369.583 554.398,421.591 					"/>
					<polygon fill="#620F69" points="607.915,371.086 659.928,423.094 607.915,475.107 					"/>
					<polygon fill="#620F69" points="661.426,424.602 713.445,476.61 661.426,528.617 					"/>
					<polygon fill="#620F69" points="714.941,478.113 766.954,530.127 714.941,582.134 					"/>
					<polygon fill="#620F69" points="768.452,531.629 820.471,583.636 768.452,635.651 					"/>
					<polygon fill="#620F69" points="821.968,585.14 873.987,637.153 821.968,689.161 					"/>
					<polygon fill="#620F69" points="875.485,638.656 927.498,690.664 875.485,742.677 					"/>
					<polygon fill="#620F69" points="928.996,692.172 981.015,744.18 928.996,796.188 					"/>
					<polygon fill="#620F69" points="982.511,745.683 1034.525,797.697 982.511,849.704 					"/>
					<polygon fill="#620F69" points="1036.022,799.199 1088.041,851.208 1036.022,903.221 					"/>
					<polygon fill="#620F69" points="396.291,50.01 448.31,102.019 396.291,154.032 					"/>
					<polygon fill="#620F69" points="451.02,104.74 503.039,156.753 451.02,208.761 					"/>
					<polygon fill="#620F69" points="505.755,159.474 557.768,211.482 505.755,263.489 					"/>
					<polygon fill="#620F69" points="560.483,214.203 612.502,266.21 560.483,318.223 					"/>
					<polygon fill="#620F69" points="615.218,268.931 667.231,320.945 615.218,372.952 					"/>
					<polygon fill="#620F69" points="669.946,323.666 721.965,375.673 669.946,427.686 					"/>
					<polygon fill="#620F69" points="724.68,378.394 776.694,430.407 724.68,482.415 					"/>
					<polygon fill="#620F69" points="779.409,433.129 831.428,485.136 779.409,537.149 					"/>
					<polygon fill="#620F69" points="834.138,487.857 886.156,539.87 834.138,591.879 					"/>
					<polygon fill="#620F69" points="888.872,542.591 940.885,594.6 888.872,646.607 					"/>
					<polygon fill="#620F69" points="943.6,597.32 995.619,649.329 943.6,701.342 					"/>
					<polygon fill="#620F69" points="998.335,652.05 1050.349,704.063 998.335,756.07 					"/>
					<polygon fill="#620F69" points="1053.064,706.784 1105.083,758.791 1053.064,810.805 					"/>
				</g>
				<g>
					<polygon fill="#620F69" points="507.38,53.413 559.398,105.427 507.38,157.434 					"/>
					<polygon fill="#620F69" points="560.896,106.93 612.915,158.938 560.896,210.951 					"/>
					<polygon fill="#620F69" points="614.413,160.446 666.426,212.453 614.413,264.462 					"/>
					<polygon fill="#620F69" points="667.923,213.957 719.942,265.97 667.923,317.977 					"/>
					<polygon fill="#620F69" points="721.44,267.472 773.459,319.481 721.44,371.494 					"/>
					<polygon fill="#620F69" points="774.951,320.983 826.97,372.997 774.951,425.005 					"/>
					<polygon fill="#620F69" points="828.466,374.5 880.485,426.508 828.466,478.521 					"/>
					<polygon fill="#620F69" points="881.983,428.016 934.008,480.024 881.983,532.032 					"/>
					<polygon fill="#620F69" points="935.488,481.527 987.507,533.54 935.488,585.547 					"/>
					<polygon fill="#620F69" points="989.016,535.044 1041.034,587.051 989.016,639.064 					"/>
					<polygon fill="#620F69" points="1042.515,588.553 1094.534,640.567 1042.515,692.575 					"/>
					<polygon fill="#620F69" points="619.28,55.855 671.299,107.869 619.28,159.876 					"/>
					<polygon fill="#620F69" points="674.008,110.59 726.027,162.597 674.008,214.61 					"/>
					<polygon fill="#620F69" points="728.743,165.318 780.762,217.331 728.743,269.339 					"/>
					<polygon fill="#620F69" points="783.471,220.053 835.49,272.06 783.471,324.067 					"/>
					<polygon fill="#620F69" points="838.206,274.781 890.219,326.794 838.206,378.803 					"/>
					<polygon fill="#620F69" points="892.934,329.515 944.947,381.523 892.934,433.531 					"/>
					<polygon fill="#620F69" points="947.657,384.244 999.676,436.253 947.657,488.266 					"/>
					<polygon fill="#620F69" points="1002.391,438.974 1054.404,490.987 1002.391,542.994 					"/>
					<polygon fill="#620F69" points="1057.12,493.708 1109.139,545.715 1057.12,597.729 					"/>
				</g>
				<g>
					<polygon fill="#620F69" points="732.771,63.599 784.789,115.613 732.771,167.621 					"/>
					<polygon fill="#620F69" points="786.287,117.116 838.3,169.123 786.287,221.136 					"/>
					<polygon fill="#620F69" points="839.797,170.627 891.816,222.64 839.797,274.647 					"/>
					<polygon fill="#620F69" points="893.314,224.142 945.339,276.15 893.314,328.164 					"/>
					<polygon fill="#620F69" points="946.819,277.659 998.838,329.666 946.819,381.674 					"/>
					<polygon fill="#620F69" points="1000.346,331.17 1052.365,383.183 1000.346,435.191 					"/>
					<polygon fill="#620F69" points="1053.846,384.686 1105.865,436.693 1053.846,488.706 					"/>
					<polygon fill="#620F69" points="847.1,68.477 899.119,120.484 847.1,172.498 					"/>
					<polygon fill="#620F69" points="901.834,123.206 953.843,175.219 901.834,227.227 					"/>
					<polygon fill="#620F69" points="956.558,177.94 1008.577,229.948 956.558,281.962 					"/>
					<polygon fill="#620F69" points="1011.287,232.668 1063.306,284.683 1011.287,336.69 					"/>
					<polygon fill="#620F69" points="1066.021,287.403 1118.034,339.411 1066.021,391.419 					"/>
				</g>
				<g>
					<polygon fill="#620F69" points="950.987,68.405 1003.006,120.418 950.987,172.426 					"/>
					<polygon fill="#620F69" points="1004.504,121.921 1056.522,173.928 1004.504,225.942 					"/>
					<polygon fill="#620F69" points="1058.015,175.437 1110.033,227.445 1058.015,279.452 					"/>
				</g>
			</g>
		</g>
	</g>
	<g>
		<path fill="#001444" d="M755.377,442.666H639.383v-76.134c0-28.541,18.902-35.229,32.279-35.229c13.292,0,81.817,0,81.817,0
			V205.754l-112.721-0.475c-125.147,0-153.648,93.678-153.648,153.642v83.745h-72.358v129.388h72.358c0,166.12,0,366.266,0,366.266
			h152.273c0,0,0-202.135,0-366.266h102.691L755.377,442.666z"/>
		<path fill="#F5F5F5" d="M769.704,456.993H653.708v-76.135c0-28.54,18.903-35.229,32.279-35.229c13.293,0,81.816,0,81.816,0V220.08
			l-112.72-0.475c-125.148,0-153.649,93.68-153.649,153.643v83.745h-72.357V586.38h72.357c0,166.12,0,366.266,0,366.266h152.274
			c0,0,0-202.135,0-366.266H756.4L769.704,456.993z"/>
	</g>
</g>
</svg>
